<svg width="32" height="32" viewBox="0 0 32 32" fill="none" xmlns="http://www.w3.org/2000/svg">
  <!-- Strawberry Shape -->
  <path d="M16 28C16 28 24 22 24 14C24 10 21 7 18 7C16 7 16 9 16 9C16 9 16 7 14 7C11 7 8 10 8 14C8 22 16 28 16 28Z" fill="#E63946" />
  <!-- Strawberry Seeds -->
  <circle cx="13" cy="13" r="0.5" fill="#FFD166" />
  <circle cx="19" cy="13" r="0.5" fill="#FFD166" />
  <circle cx="16" cy="17" r="0.5" fill="#FFD166" />
  <circle cx="13" cy="21" r="0.5" fill="#FFD166" />
  <circle cx="19" cy="21" r="0.5" fill="#FFD166" />
  
  <!-- Lavender sprig -->
  <path d="M12 4C12 4 10 6 10 8C10 10 12 11 12 11" stroke="#9B59B6" stroke-width="1.5" stroke-linecap="round" />
  <path d="M20 4C20 4 22 6 22 8C22 10 20 11 20 11" stroke="#9B59B6" stroke-width="1.5" stroke-linecap="round" />
  
  <!-- Green leaves (top) -->
  <path d="M14 7C14 7 15 4 16 4C17 4 18 7 18 7" stroke="#2D6A4F" stroke-width="2" stroke-linecap="round" />
  <path d="M13 8C13 8 11 7 10 7" stroke="#2D6A4F" stroke-width="2" stroke-linecap="round" />
  <path d="M19 8C19 8 21 7 22 7" stroke="#2D6A4F" stroke-width="2" stroke-linecap="round" />
</svg>
